<?xml version="1.0" standalone="no"?>
<!DOCTYPE svg PUBLIC "-//W3C//DTD SVG 20010904//EN"
 "http://www.w3.org/TR/2001/REC-SVG-20010904/DTD/svg10.dtd">
<svg
  version="1.0" 
  xmlns="http://www.w3.org/2000/svg"
  width="300.000000pt" 
  height="389.000000pt" 
  viewBox="0 0 300.000000 389.000000"
  preserveAspectRatio="xMidYMid meet">
  <metadata>
    Created by potrace 1.10, written by Peter Selinger 2001-2011
  </metadata>
  <g transform="translate(0.000000,389.000000) scale(0.100000,-0.100000)" fill="#3b83f6" stroke="none">
    <path d="M535 2922 c-115 -154 -250 -330 -372 -485 -40 -50 -73 -93 -73 -96 0 -4 126 -4 280 -3 193 3 285 1 294 -7 7 -6 15 -8 19 -5 3 3 6 96 7 205 1 190 -23 514 -39 531 -4 4 -56 -59 -116 -140z m121 -74 c7 -90 14 -236 14 -325 l0 -163 -158 0 -158 0 -12 45 c-6 25 -28 62 -47 83 l-35 39 64 81 c35 45 119 156 186 247 68 91 125 164 127 161 3 -2 11 -78 19 -168z m-364 -384 c15 -21 31 -53 34 -71 l6 -32 -101 -3 c-56 -2 -100 0 -99 4 8 22 115 147 123 145 6 -2 22 -21 37 -43z"/>
    <path d="M174 2836 c1 -47 -2 -86 -6 -86 -5 0 -8 5 -8 12 0 6 -3 9 -6 6 -8 -9 22 -92 35 -96 8 -3 11 31 11 110 l0 113 75 -3 c51 -3 75 -1 75 7 0 6 -17 11 -37 11 -21 0 -61 3 -89 6 l-51 6 1 -86z"/>
    <path d="M230 2830 c0 -5 7 -10 15 -10 20 0 19 -10 -6 -36 l-21 -23 38 -6 c22 -3 51 -8 67 -10 15 -3 27 -1 27 4 0 5 -20 12 -45 15 -41 7 -44 9 -34 27 6 11 8 27 5 35 -6 16 -46 19 -46 4z"/>
    <path d="M740 2795 c-19 -21 -21 -25 -7 -25 13 0 17 -9 17 -40 0 -22 5 -40 10 -40 6 0 10 28 10 65 0 36 -1 65 -3 65 -2 0 -14 -11 -27 -25z"/>
    <path d="M1251 2313 l-84 -4 7 -217 c4 -119 9 -218 11 -220 2 -2 113 0 248 4 l245 7 4 191 c2 105 2 202 -2 216 l-6 25 -170 1 c-93 0 -207 -1 -253 -3z m407 -115 c1 -54 1 -141 0 -194 l-3 -97 -63 77 c-66 80 -168 167 -292 248 -41 27 -76 52 -77 56 -2 4 95 7 215 7 l217 0 3 -97z m-453 82 c4 -6 57 -45 118 -87 70 -48 151 -115 215 -180 57 -58 102 -106 100 -108 -2 -2 -82 -5 -178 -6 l-175 -3 -3 53 -3 53 -39 -5 -38 -5 -6 87 c-4 47 -9 114 -11 149 -5 57 3 79 20 52z m63 -347 c3 -37 0 -43 -17 -43 -40 0 -51 11 -51 52 0 38 1 39 33 36 30 -3 32 -6 35 -45z"/>
    <path d="M1522 2202 c-12 -23 -22 -44 -22 -47 0 -2 14 -10 30 -19 l30 -14 -1 31 c-1 18 -4 46 -8 62 l-6 30 -23 -43z"/>
    <path d="M380 2275 c-19 -19 -29 -35 -24 -35 6 0 19 9 29 20 27 30 34 25 37 -32 2 -31 7 -51 13 -48 18 9 6 130 -13 130 -5 0 -23 -16 -42 -35z"/>
    <path d="M2337 2098 c-80 -129 -219 -376 -307 -543 -35 -66 -74 -140 -87 -164 -13 -24 -22 -46 -19 -49 15 -14 166 2 306 33 85 19 227 48 315 65 265 52 315 63 315 72 0 4 -5 8 -10 8 -12 0 -254 -48 -285 -57 -16 -4 -13 2 13 29 55 58 66 131 31 222 -47 127 -222 219 -335 176 -15 -6 -29 -9 -31 -7 -2 3 11 31 30 63 82 142 98 174 88 174 -6 0 -17 -10 -24 -22z m114 -245 c124 -56 191 -208 137 -313 -29 -57 -71 -85 -153 -100 -163 -31 -285 59 -285 208 0 94 56 204 112 221 47 15 138 7 189 -16z m-290 -323 c26 -47 77 -88 122 -97 15 -3 30 -9 32 -13 5 -9 -249 -60 -297 -60 -26 0 -29 2 -18 15 7 8 9 15 5 15 -4 0 -13 -7 -20 -16 -6 -9 -17 -15 -22 -13 -6 2 24 68 67 147 44 79 82 153 87 165 5 17 9 7 13 -39 4 -35 17 -79 31 -104z"/>
    <path d="M2098 1993 c-21 -5 -22 -9 -6 -54 20 -59 43 -72 71 -41 22 24 21 31 -5 41 -14 5 -23 17 -23 31 0 25 -9 30 -37 23z"/>
    <path d="M690 1935 c0 -41 -27 -50 -32 -10 -2 14 -7 26 -12 25 -12 0 -15 -58 -4 -87 9 -28 28 -30 28 -3 0 11 4 20 9 20 5 0 11 -9 14 -20 3 -11 10 -20 16 -20 6 0 11 9 11 20 0 11 5 20 10 20 6 0 10 5 10 10 0 6 -7 10 -15 10 -10 0 -15 11 -15 35 0 19 -4 35 -10 35 -5 0 -10 -16 -10 -35z"/>
    <path d="M1392 1818 c-7 -7 -12 -18 -12 -25 0 -16 36 -17 45 -2 5 7 14 4 26 -7 16 -14 19 -15 19 -2 0 18 -31 48 -51 48 -8 0 -20 -5 -27 -12z"/>
    <path d="M627 1678 c-3 -62 -13 -178 -22 -258 -11 -96 -14 -175 -10 -233 6 -72 5 -87 -7 -87 -21 0 -48 -33 -48 -58 0 -19 -6 -22 -38 -22 -21 0 -63 -4 -93 -10 -30 -5 -99 -17 -154 -25 -161 -26 -235 -45 -235 -61 0 -10 7 -13 23 -9 34 8 237 43 376 65 112 17 125 18 147 3 13 -8 24 -19 24 -23 0 -5 -15 -80 -34 -167 -19 -87 -40 -188 -47 -225 -12 -65 -8 -92 10 -72 9 9 91 414 91 447 0 10 11 22 24 27 13 5 27 13 30 18 4 6 40 -4 88 -25 300 -126 430 -175 440 -165 8 8 -8 20 -58 43 -89 40 -279 115 -369 144 -65 21 -70 26 -77 56 -6 31 -32 62 -60 71 -13 5 -5 133 27 422 15 139 10 256 -10 256 -9 0 -14 -34 -18 -112z m21 -610 c26 -26 1 -78 -38 -78 -22 0 -50 25 -50 45 0 36 62 59 88 33z"/>
    <path d="M690 1770 c0 -18 30 -70 40 -70 15 0 12 11 -10 48 -20 33 -30 40 -30 22z"/>
    <path d="M511 1681 c-21 -30 -27 -51 -13 -51 6 0 37 45 50 73 10 20 -19 3 -37 -22z"/>
    <path d="M762 1601 c12 -15 28 -37 35 -47 11 -18 12 -18 12 -1 1 25 -37 77 -56 77 -11 0 -9 -7 9 -29z"/>
    <path d="M432 1561 c-11 -16 -18 -32 -15 -35 9 -8 53 34 53 51 0 21 -15 15 -38 -16z"/>
    <path d="M327 1441 c-9 -16 -17 -35 -17 -43 1 -16 50 42 50 60 0 21 -15 13 -33 -17z"/>
    <path d="M840 1462 c0 -14 30 -71 41 -77 14 -9 11 10 -8 50 -15 32 -33 47 -33 27z"/>
    <path d="M2570 1353 c-24 -31 -23 -40 12 -66 24 -18 27 -18 64 -2 22 10 33 19 26 22 -7 3 -26 0 -42 -7 -16 -7 -34 -9 -39 -5 -18 10 -12 44 9 57 23 15 26 28 6 28 -8 0 -24 -12 -36 -27z"/>
    <path d="M900 1335 c0 -22 36 -95 47 -95 8 0 6 12 -6 41 -19 41 -41 71 -41 54z"/>
    <path d="M224 1305 c-17 -26 -14 -42 5 -30 6 3 15 15 21 25 16 30 -7 34 -26 5z"/>
    <path d="M1838 1306 c-13 -30 -1 -97 19 -103 7 -3 10 3 6 15 -7 27 27 39 44 16 27 -37 25 -2 -3 43 -35 56 -50 63 -66 29z m41 -20 c10 -12 8 -17 -8 -26 -19 -9 -21 -8 -21 15 0 28 12 32 29 11z"/>
    <path d="M147 1193 c-13 -21 -27 -43 -30 -50 -4 -6 -3 -14 1 -17 8 -5 72 85 72 100 0 16 -24 -2 -43 -33z"/>
    <path d="M950 1184 c0 -3 7 -18 15 -35 19 -35 40 -30 23 6 -9 21 -38 43 -38 29z"/>
    <path d="M1000 1081 c0 -6 5 -13 11 -17 6 -3 17 -22 25 -40 8 -19 19 -34 24 -34 17 0 11 22 -16 62 -26 36 -44 48 -44 29z"/>
    <path d="M47 1042 c-40 -42 -33 -62 8 -22 19 19 35 38 35 42 0 15 -16 8 -43 -20z"/>
    <path d="M1100 939 c0 -18 32 -79 41 -79 14 0 11 16 -12 54 -22 38 -29 44 -29 25z"/>
    <path d="M20 882 c0 -14 39 -46 47 -39 3 4 -2 16 -12 27 -19 21 -35 26 -35 12z"/>
    <path d="M1370 836 c0 -44 -1 -46 -30 -46 -28 0 -30 3 -30 35 0 19 -4 35 -10 35 -6 0 -10 -32 -10 -75 0 -59 3 -77 15 -82 21 -7 32 4 17 19 -7 7 -12 20 -12 30 0 13 8 18 30 18 27 0 30 -3 30 -30 0 -21 5 -30 16 -30 12 0 14 7 9 30 -5 23 -3 30 9 30 9 0 16 5 16 10 0 6 -7 10 -15 10 -11 0 -15 11 -15 39 0 22 -4 43 -10 46 -6 4 -10 -12 -10 -39z"/>
    <path d="M101 808 c0 -18 59 -63 59 -46 0 13 -42 58 -54 58 -3 0 -6 -6 -5 -12z"/>
    <path d="M1126 721 c-28 -9 -52 -23 -54 -30 -3 -8 1 -11 9 -8 8 3 33 11 57 18 23 6 42 17 42 25 0 8 -1 14 -2 13 -2 0 -25 -8 -52 -18z"/>
    <path d="M200 710 c0 -5 4 -10 9 -10 4 0 20 -12 35 -27 19 -18 30 -23 37 -16 8 8 0 19 -24 37 -35 27 -57 33 -57 16z"/>
    <path d="M933 643 c-24 -8 -43 -19 -43 -24 0 -12 6 -11 59 5 25 7 47 18 49 24 5 15 -13 14 -65 -5z"/>
    <path d="M310 622 c0 -14 60 -53 70 -47 6 3 -3 17 -19 31 -29 24 -51 31 -51 16z"/>
    <path d="M752 583 c-24 -8 -40 -19 -35 -24 9 -9 103 19 103 32 0 12 -17 10 -68 -8z"/>
    <path d="M400 542 c0 -11 37 -32 44 -25 8 9 -14 33 -30 33 -8 0 -14 -3 -14 -8z"/>
    <path d="M592 520 c-36 -8 -48 -16 -35 -22 13 -7 93 12 93 23 0 10 -11 10 -58 -1z"/>
    <path d="M1632 483 c-19 -7 -42 -58 -42 -93 0 -37 23 -85 45 -94 33 -12 83 -6 109 15 14 11 24 25 20 30 -3 5 -17 0 -31 -11 -30 -23 -71 -26 -99 -6 -23 17 -27 103 -5 129 19 23 73 21 104 -3 28 -22 37 -25 37 -10 0 30 -96 60 -138 43z"/>
    <path d="M1913 483 c-21 -8 -15 -25 6 -18 26 8 64 -26 64 -58 0 -33 -27 -65 -57 -69 -20 -3 -21 -22 -1 -24 6 0 28 -6 49 -12 22 -6 43 -9 48 -6 14 9 -2 24 -27 24 -13 0 -27 5 -30 10 -3 6 -2 10 4 10 6 0 17 13 26 30 14 26 14 34 1 65 -9 21 -26 39 -41 45 -15 6 -27 10 -28 9 -1 0 -8 -3 -14 -6z"/>
    <path d="M2402 469 c-12 -5 -27 -20 -32 -34 -12 -31 -13 -85 -2 -101 13 -18 56 -44 74 -44 29 0 21 17 -12 23 -19 4 -35 17 -45 37 -15 29 -15 34 2 68 15 30 23 37 46 35 15 -1 27 2 27 6 0 13 -34 19 -58 10z"/>
    <path d="M2120 425 c0 -39 -3 -45 -21 -45 -19 0 -21 4 -16 41 4 28 2 39 -6 36 -15 -5 -22 -147 -7 -147 5 0 10 14 10 30 0 23 4 30 20 30 15 0 20 -7 20 -25 0 -34 17 -32 22 3 6 41 -3 122 -13 122 -5 0 -9 -20 -9 -45z"/>
    <path d="M2520 385 c0 -50 4 -85 10 -85 6 0 10 14 10 31 0 26 3 30 23 27 17 -2 22 -10 22 -32 1 -16 6 -31 13 -34 10 -3 12 9 8 49 -2 30 -5 72 -5 93 -1 22 -4 36 -8 32 -4 -4 -6 -27 -4 -51 2 -42 1 -45 -23 -45 -24 0 -26 3 -26 50 0 28 -4 50 -10 50 -6 0 -10 -35 -10 -85z"/>
    <path d="M550 410 c0 -33 -3 -40 -20 -40 -16 0 -20 7 -20 37 0 59 -21 25 -22 -36 -2 -58 15 -88 27 -50 13 42 45 48 45 8 0 -10 4 -19 9 -19 12 0 21 64 10 68 -5 2 -9 19 -9 38 0 19 -4 34 -10 34 -5 0 -10 -18 -10 -40z"/>
    <path d="M1830 421 c0 -5 -12 -12 -27 -14 -27 -4 -27 -4 -5 -12 12 -4 22 -15 22 -24 1 -14 2 -14 11 1 5 9 16 15 23 12 8 -3 17 -1 20 4 3 5 -4 12 -15 15 -12 3 -18 10 -14 16 3 6 1 11 -4 11 -6 0 -11 -4 -11 -9z"/>
    <path d="M2260 422 c0 -5 7 -13 16 -16 24 -9 54 -7 54 4 0 6 -9 10 -19 10 -11 0 -26 3 -35 6 -9 3 -16 2 -16 -4z"/>
    <path d="M2293 373 c-13 -2 -23 -9 -23 -15 0 -6 10 -8 23 -4 12 3 28 6 35 6 6 0 12 5 12 10 0 10 -8 11 -47 3z"/>
    <path d="M2175 350 c-3 -5 3 -10 14 -10 27 0 27 -16 1 -32 -11 -7 -20 -16 -20 -21 0 -10 62 -37 72 -31 17 11 7 24 -17 24 -25 0 -25 1 -9 25 13 20 14 28 4 40 -14 17 -36 20 -45 5z"/>
    <path d="M2642 333 c2 -18 12 -32 26 -38 12 -5 20 -15 18 -22 -6 -15 10 -27 19 -14 8 14 -6 91 -16 91 -5 0 -9 -9 -9 -20 0 -11 -4 -20 -10 -20 -5 0 -10 11 -10 25 0 14 -5 25 -11 25 -6 0 -9 -12 -7 -27z"/>
  </g>
</svg>
