<?xml version="1.0" standalone="no"?>
<!DOCTYPE svg PUBLIC "-//W3C//DTD SVG 20010904//EN"
 "http://www.w3.org/TR/2001/REC-SVG-20010904/DTD/svg10.dtd">
<svg 
  version="1.0"
  xmlns="http://www.w3.org/2000/svg"
  width="300.000000pt"
  height="370.000000pt"
  viewBox="0 0 300.000000 370.000000"
  preserveAspectRatio="xMidYMid meet">
  <metadata>
    Created by potrace 1.10, written by Peter Selinger 2001-2011
  </metadata>
  <g transform="translate(0.000000,370.000000) scale(0.100000,-0.100000)" fill="#3b83f6" stroke="none">
    <path d="M2447 3403 c-4 -3 -7 -27 -7 -52 1 -36 3 -42 11 -28 5 9 16 17 24 17 19 0 37 34 29 54 -6 16 -45 22 -57 9z m43 -28 c0 -7 -7 -15 -15 -19 -15 -5 -22 24 -9 37 9 9 24 -2 24 -18z"/>
    <path d="M2337 3393 c-8 -8 -9 -73 -2 -73 3 0 11 5 18 10 7 6 21 17 31 24 25 17 14 46 -17 46 -13 0 -27 -3 -30 -7z m48 -12 c3 -6 -4 -15 -15 -21 -16 -8 -20 -8 -20 3 0 25 23 36 35 18z"/>
    <path d="M2141 3345 c-1 -22 -4 -52 -6 -67 -2 -16 1 -28 6 -28 5 0 9 9 9 20 0 13 7 20 20 20 13 0 20 -7 20 -20 0 -11 5 -20 10 -20 6 0 10 27 10 60 0 33 -3 60 -8 60 -4 0 -7 -15 -7 -32 0 -26 -4 -34 -22 -36 -19 -3 -22 2 -26 40 l-4 43 -2 -40z"/>
    <path d="M2775 3333 c-10 -27 -19 -55 -22 -63 -3 -8 -14 11 -26 45 -12 33 -23 53 -24 44 -2 -8 5 -37 17 -63 11 -26 20 -54 20 -62 0 -32 16 -10 36 49 12 34 25 70 29 80 4 10 3 17 -3 17 -6 0 -18 -21 -27 -47z"/>
    <path d="M2940 3346 c0 -8 5 -18 10 -21 6 -3 10 3 10 14 0 12 -4 21 -10 21 -5 0 -10 -6 -10 -14z"/>
    <path d="M2641 3303 c-1 -17 -7 -23 -23 -23 -23 0 -23 -1 2 -14 17 -9 29 -10 38 -3 7 6 9 13 4 16 -5 3 -12 15 -15 26 -4 18 -5 18 -6 -2z"/>
    <path d="M2814 3306 c-9 -24 0 -69 16 -74 13 -5 13 -3 1 11 -8 11 -11 28 -7 47 6 31 0 41 -10 16z"/>
    <path d="M2264 3292 c3 -5 54 -12 113 -15 59 -4 131 -9 158 -13 36 -5 47 -4 40 4 -17 19 -322 42 -311 24z"/>
    <path d="M2863 3269 c0 -33 12 -38 20 -9 3 11 12 20 21 20 9 0 16 4 16 9 0 5 -13 9 -28 9 -25 -1 -29 -5 -29 -29z"/>
    <path d="M2939 3254 c-11 -30 -3 -46 11 -24 10 16 13 50 5 50 -3 0 -10 -12 -16 -26z"/>
    <path d="M2327 3243 c-13 -12 -7 -22 10 -16 13 5 15 2 10 -11 -4 -10 -7 -20 -7 -22 0 -2 -8 -4 -17 -4 -15 0 -16 -2 -3 -10 18 -11 77 -14 66 -2 -4 4 -12 8 -17 8 -5 1 -11 2 -14 3 -3 0 -1 9 4 19 14 26 -13 54 -32 35z"/>
    <path d="M2400 3200 c0 -22 15 -27 23 -7 4 9 8 8 17 -3 9 -11 13 -12 17 -2 7 17 26 15 19 -3 -6 -17 9 -21 20 -4 10 17 -11 31 -55 35 -36 3 -41 1 -41 -16z"/>
    <path d="M2759 2708 c-1 -2 -3 -12 -4 -23 -2 -11 -4 -27 -6 -35 -3 -11 7 -16 39 -18 25 -2 42 1 42 7 0 6 -14 11 -31 11 -30 0 -31 2 -25 30 3 17 1 30 -4 30 -6 0 -11 -1 -11 -2z"/>
    <path d="M2521 2600 c1 -38 4 -70 7 -70 3 0 14 7 23 16 17 15 20 15 43 0 14 -8 27 -12 30 -7 3 5 -8 14 -24 21 l-30 13 25 33 c17 22 21 34 13 34 -8 0 -26 -19 -41 -42 l-27 -42 0 57 c0 33 -4 57 -11 57 -6 0 -9 -26 -8 -70z"/>
    <path d="M2650 2622 c0 -6 5 -14 10 -17 15 -9 12 -25 -4 -25 -8 0 -18 -4 -21 -10 -4 -6 6 -7 25 -4 20 4 30 3 30 -5 0 -7 4 -10 10 -6 5 3 7 12 3 20 -3 8 0 15 6 15 6 0 11 5 11 11 0 6 -7 8 -16 5 -10 -4 -25 1 -35 10 -11 10 -19 12 -19 6z"/>
    <path d="M2110 2588 c0 -2 -3 -30 -5 -63 -2 -33 -8 -81 -13 -108 -5 -26 -7 -49 -3 -51 7 -4 123 13 129 19 10 9 -11 25 -21 17 -7 -6 -32 -13 -56 -17 -39 -6 -43 -5 -38 10 4 9 7 27 7 40 0 21 5 24 48 27 l47 4 -42 8 c-43 9 -43 9 -43 52 l0 44 45 0 c25 0 45 5 45 10 0 8 -99 16 -100 8z"/>
    <path d="M2360 2520 c36 -12 70 -12 70 0 0 6 -21 10 -47 9 -39 -1 -43 -2 -23 -9z"/>
    <path d="M2375 2490 l-40 -7 48 -2 c30 0 46 3 42 9 -3 6 -7 9 -8 9 -1 -1 -20 -5 -42 -9z"/>
    <path d="M2475 2490 c-4 -7 60 -10 184 -10 116 0 192 4 196 10 4 7 -60 10 -184 10 -116 0 -192 -4 -196 -10z"/>
    <path d="M2608 2443 c26 -5 28 -20 5 -68 -9 -19 -14 -37 -12 -40 9 -8 129 17 129 27 0 10 -22 8 -84 -8 l-26 -6 15 36 c23 55 20 66 -17 65 -24 -1 -27 -3 -10 -6z"/>
    <path d="M2250 2417 c-16 -13 -15 -57 1 -57 5 0 9 10 9 23 1 20 2 21 14 5 10 -13 15 -15 24 -6 9 9 16 7 27 -8 15 -18 15 -18 13 6 -2 20 -8 25 -28 24 -14 -1 -29 5 -35 12 -8 10 -13 10 -25 1z"/>
    <path d="M1570 2160 c0 -36 2 -40 25 -40 27 0 48 31 27 38 -7 2 -12 12 -12 23 0 12 -7 19 -20 19 -17 0 -20 -7 -20 -40z"/>
    <path d="M1937 2193 c-24 -24 9 -69 43 -58 29 9 25 27 -5 19 -33 -8 -35 23 -2 36 22 9 22 9 -4 9 -14 1 -29 -2 -32 -6z"/>
    <path d="M1569 2100 c-18 -10 -289 -342 -289 -353 0 -9 297 -9 663 0 211 4 287 9 291 18 5 13 -238 303 -276 329 -18 13 -55 16 -198 16 -96 0 -182 -5 -191 -10z m396 -42 c20 -17 77 -79 127 -137 50 -58 100 -116 111 -129 l21 -22 -192 0 c-105 1 -311 -2 -459 -6 -262 -7 -268 -7 -253 12 45 56 177 216 216 262 l45 52 174 0 174 0 36 -32z"/>
    <path d="M1580 1989 c0 -11 5 -17 10 -14 6 3 10 13 10 21 0 8 -4 14 -10 14 -5 0 -10 -9 -10 -21z"/>
    <path d="M1930 1920 c0 -11 5 -20 10 -20 6 0 10 9 10 20 0 11 -4 20 -10 20 -5 0 -10 -9 -10 -20z"/>
    <path d="M1580 1800 c0 -11 5 -20 10 -20 6 0 10 9 10 20 0 11 -4 20 -10 20 -5 0 -10 -9 -10 -20z"/>
    <path d="M2266 1818 c-10 -33 -13 -99 -5 -104 16 -10 58 24 65 53 5 20 2 31 -16 45 -26 21 -39 23 -44 6z m42 -40 c3 -24 -22 -57 -34 -45 -4 3 -3 22 0 42 8 41 29 43 34 3z"/>
    <path d="M1186 1760 c-10 -22 -15 -48 -13 -58 4 -14 6 -14 12 6 9 26 30 29 44 5 9 -16 10 -16 11 3 0 26 -20 84 -29 84 -4 0 -15 -18 -25 -40z"/>
    <path d="M1931 1673 c1 -21 3 -30 6 -20 3 11 11 16 19 13 7 -3 16 -1 19 4 4 6 -3 10 -14 10 -28 0 -27 18 2 23 19 4 18 4 -5 6 -26 1 -28 -2 -27 -36z"/>
    <path d="M1570 1688 c0 -7 -3 -23 -6 -35 -6 -20 -3 -23 25 -23 35 0 43 20 9 21 -22 0 -22 1 2 11 l25 11 -25 7 c-25 7 -25 7 5 12 l30 5 -32 2 c-21 0 -33 -4 -33 -11z"/>
    <path d="M2499 1578 l-106 -50 -8 -145 c-7 -146 -2 -173 30 -173 7 0 60 -14 118 -30 l105 -30 107 56 c120 64 142 86 124 130 -6 16 -12 77 -13 137 l0 107 -36 10 c-126 33 -161 40 -186 39 -16 0 -77 -23 -135 -51z m240 13 c95 -23 101 -26 101 -53 0 -15 -5 -19 -17 -14 -15 5 -15 4 1 -9 27 -21 13 -29 -20 -12 l-27 14 27 18 c14 10 25 20 22 22 -7 7 -44 -15 -118 -68 l-67 -49 -98 36 c-54 20 -104 38 -112 40 -20 6 168 94 201 94 15 0 63 -9 107 -19z m65 -102 c21 -12 36 -29 36 -40 0 -17 -4 -17 -54 8 -49 24 -53 28 -38 39 21 17 15 17 56 -7z m-269 -28 l99 -38 -3 -124 c-1 -68 -4 -125 -4 -126 -5 -5 -200 57 -212 67 -12 10 -15 40 -15 136 0 112 2 124 18 124 9 -1 62 -18 117 -39z m250 -18 c42 -21 55 -32 55 -49 0 -12 3 -30 7 -40 4 -12 -19 -3 -81 31 -48 26 -90 45 -92 42 -3 -3 35 -27 85 -54 72 -38 91 -53 91 -70 0 -12 -4 -24 -8 -27 -4 -2 -46 18 -92 45 -68 39 -86 55 -90 76 -5 23 0 32 24 51 16 12 33 22 38 22 4 0 32 -12 63 -27z m-51 -129 c69 -42 87 -64 51 -64 -28 0 -135 72 -135 91 0 11 2 19 4 19 2 0 38 -21 80 -46z m-20 -45 c32 -20 45 -34 39 -40 -11 -11 -113 45 -113 62 0 16 24 9 74 -22z m-30 -30 c36 -21 41 -44 8 -32 -22 8 -52 34 -52 45 0 12 5 10 44 -13z m-15 -33 c9 -10 8 -16 -4 -26 -13 -11 -15 -8 -15 14 0 30 3 32 19 12z"/>
    <path d="M2611 1571 c-9 -6 -11 -20 -6 -50 5 -34 11 -41 29 -41 25 0 46 17 46 37 0 7 -7 13 -16 13 -10 0 -14 6 -11 14 3 7 0 19 -6 25 -13 13 -18 13 -36 2z m24 -31 c-5 -14 -2 -20 9 -20 20 0 21 -16 1 -24 -17 -6 -36 29 -28 52 8 20 25 13 18 -8z"/>
    <path d="M2486 1368 c-2 -7 -9 -28 -15 -45 -10 -32 1 -48 13 -18 4 12 11 13 32 5 15 -6 28 -9 30 -7 2 2 -4 18 -14 37 -18 37 -40 50 -46 28z m23 -37 c-15 -5 -22 6 -14 19 6 9 10 9 16 -1 5 -8 4 -15 -2 -18z"/>
    <path d="M898 1424 c-12 -11 -10 -94 2 -94 6 0 10 7 10 15 0 8 5 15 10 15 6 0 10 -8 10 -17 0 -12 3 -14 11 -6 6 6 8 25 4 47 -8 41 -28 61 -25 25 4 -40 -2 -46 -9 -11 -3 19 -9 30 -13 26z"/>
    <path d="M770 1358 c-11 -12 -20 -27 -20 -33 0 -14 32 -45 47 -45 13 0 26 -54 48 -211 l17 -115 -35 -35 c-87 -87 -36 -209 86 -209 36 0 51 6 76 29 17 16 34 42 37 59 6 27 10 30 62 36 32 3 153 17 271 31 192 23 216 24 231 10 42 -38 112 1 94 53 -14 39 -64 43 -93 6 -19 -24 -30 -27 -173 -45 -194 -23 -180 -24 -172 5 7 29 -4 55 -16 37 -4 -7 -12 6 -19 30 -20 67 -101 140 -184 167 -37 12 -78 22 -92 22 -18 0 -23 4 -19 15 5 13 2 13 -27 1 l-34 -14 -15 61 c-15 58 -15 63 2 80 21 20 24 57 6 75 -19 19 -55 14 -78 -10z m65 -28 c0 -20 -6 -26 -28 -28 -32 -4 -46 20 -26 44 19 24 54 14 54 -16z m183 -217 c90 -30 135 -73 177 -167 24 -54 23 -70 -3 -44 -6 6 -15 9 -18 5 -4 -4 4 -15 17 -26 l24 -20 -45 -1 c-25 -1 -66 -5 -91 -9 -46 -7 -47 -7 -63 26 -15 33 -52 56 -107 67 -24 5 -27 12 -40 96 -10 60 -11 91 -4 95 16 7 103 -5 153 -22z m650 -200 c4 -30 -39 -53 -63 -33 -8 7 -15 18 -15 24 0 40 73 48 78 9z m-798 -43 c0 -59 1 -60 28 -60 15 1 46 5 70 9 37 7 42 6 42 -10 0 -27 -47 -77 -80 -84 -38 -8 -100 21 -118 55 -17 33 -7 99 20 127 12 13 25 23 30 23 4 0 8 -27 8 -60z m75 46 c30 -13 74 -61 64 -70 -2 -2 -30 -7 -61 -11 l-58 -7 0 35 c0 19 -3 42 -6 51 -8 20 15 21 61 2z"/>
    <path d="M1045 1213 c7 -58 11 -70 20 -62 8 9 -8 119 -18 119 -6 0 -7 -22 -2 -57z"/>
    <path d="M1202 1259 c-22 -8 -22 -10 -8 -31 9 -12 16 -30 16 -40 0 -10 5 -18 10 -18 6 0 10 5 10 10 0 6 9 10 20 10 13 0 18 -5 14 -15 -4 -8 -12 -15 -20 -15 -8 0 -14 -4 -14 -10 0 -15 26 -12 40 5 20 24 8 50 -23 48 -15 -1 -27 2 -27 7 0 5 -3 15 -6 24 -4 11 -1 16 10 16 9 0 16 5 16 10 0 12 -7 12 -38 -1z"/>
    <path d="M1110 1231 c-16 -30 -12 -49 10 -56 23 -7 50 10 50 31 0 14 -27 44 -40 44 -5 0 -14 -9 -20 -19z m38 -24 c2 -10 -3 -17 -12 -17 -10 0 -16 9 -16 21 0 24 23 21 28 -4z"/>
    <path d="M1730 1090 c-13 -8 -13 -11 3 -27 16 -16 18 -16 33 -1 28 27 -1 50 -36 28z"/>
    <path d="M1610 1067 c0 -17 -5 -27 -15 -27 -8 0 -15 7 -15 15 0 8 -4 15 -10 15 -15 0 -12 -26 4 -39 7 -6 21 -9 30 -5 11 4 16 1 16 -10 0 -9 5 -16 10 -16 7 0 8 14 4 38 -8 47 -24 66 -24 29z"/>
    <path d="M1655 1073 c-3 -10 -3 -19 2 -20 4 -2 15 -8 23 -13 13 -8 12 -11 -5 -24 -20 -15 -20 -15 3 -16 32 0 40 29 14 51 -27 21 -27 26 -4 32 13 4 12 5 -4 6 -12 0 -25 -7 -29 -16z"/>
    <path d="M1740 895 c0 -30 5 -55 10 -55 6 0 10 11 10 24 0 19 4 23 19 19 11 -3 17 -11 15 -18 -3 -7 -1 -16 5 -20 7 -3 11 2 11 14 0 12 7 21 15 21 8 0 15 5 15 10 0 6 -7 10 -15 10 -9 0 -15 10 -15 26 0 15 -4 23 -10 19 -6 -4 -8 -15 -5 -26 5 -15 1 -19 -14 -19 -16 0 -21 6 -21 25 0 14 -4 25 -10 25 -5 0 -10 -25 -10 -55z"/>
    <path d="M2862 650 c-18 -21 -45 -45 -60 -52 -16 -8 -26 -21 -24 -30 1 -9 -7 -23 -20 -32 -12 -9 -19 -19 -15 -22 4 -4 17 2 30 13 12 12 31 23 42 25 13 2 19 11 18 24 -1 13 13 36 37 59 38 37 49 55 33 55 -5 0 -23 -18 -41 -40z m-42 -81 c0 -5 -7 -9 -15 -9 -15 0 -20 12 -9 23 8 8 24 -1 24 -14z"/>
    <path d="M926 654 c-21 -20 -20 -30 4 -54 24 -24 34 -25 54 -4 22 21 20 51 -3 64 -27 14 -37 13 -55 -6z m52 -27 c4 -20 -25 -34 -40 -19 -15 15 -1 44 19 40 10 -2 19 -11 21 -21z"/>
    <path d="M2433 624 c-3 -8 -13 -14 -22 -11 -9 2 -40 1 -69 -3 -29 -3 -55 -3 -58 2 -8 13 -44 9 -50 -6 -5 -12 -97 -62 -146 -79 -10 -4 -18 -12 -18 -20 0 -7 -13 -26 -30 -42 -27 -26 -32 -27 -55 -15 -13 7 -27 21 -31 32 -3 10 -14 18 -25 18 -11 0 -44 14 -75 31 -30 17 -57 29 -60 26 -5 -5 91 -67 105 -67 5 0 11 -9 14 -20 3 -13 14 -20 29 -20 12 0 31 -7 40 -14 17 -12 17 -14 0 -30 -10 -9 -24 -16 -30 -16 -13 0 -22 -13 -27 -42 -3 -13 -24 -40 -47 -60 -24 -21 -38
      -38 -31 -38 7 0 31 18 54 40 23 22 44 38 47 35 3 -2 13 0 24 6 14 7 18 17 14 32 -3 12 1 29 10 38 15 16 19 15 73 -12 32 -16 66 -28 77 -27 26 3 93 -11 122 -25 17 -8 28 -8 42 1 10 6 56 12 102 13 63 1 88 6 103 19 19 16 38 23 108 37 16 3 31 11 34 19 2 7 20 25 39 39 39 30 68 23 69 -17 0 -18 6 -23 26 -23 14 0 33 -6 43 -14 9 -8 20 -11 24 -7 4 4 0 13 -9 20 -9 6 -18 20 -20 31 -3 11 -13 21 -24 23 -42 6 -145 66 -145 84 0 23 -27 35 -49 21 -24 -15 -118 14 -124 38
      -6 23 -45 26 -54 3z m44 -10 c9 -23 -11 -38 -26 -20 -13 16 -7 36 10 36 5 0 12 -7 16 -16z m-202 -25 c0 -7 -8 -15 -17 -17 -18 -3 -25 18 -11 32 10 10 28 1 28 -15z m168 -6 c20 -23 27 -157 9 -175 -6 -6 -12 -17 -12 -24 0 -6 -17 -14 -37 -18 -58 -9 -73 -7 -73 8 0 8 -9 22 -21 30 -12 8 -18 19 -15 25 4 5 2 37 -3 71 -12 73 -8 88 27 93 67 10 109 7 125 -10z m107 -13 c76 -20 97 -64 61 -125 -23 -39 -69 -53 -103 -31 -22 14 -26 27 -32 87 -7 75 -2 94 19 85 8 -3
      32 -10 55 -16z m100 -10 c0 -5 -5 -12 -11 -16 -14 -8 -33 11 -25 25 7 11 36 4 36 -9z m-398 -4 c12 -8 19 -34 24 -79 6 -56 4 -68 -10 -73 -9 -3 -16 -15 -16 -25 0 -19 -11 -20 -70 -3 -28 8 -54 57 -54 103 -1 42 1 45 43 68 50 26 59 27 83 9z m458 -57 c0 -12 -50 -40 -60 -34 -11 7 -14 58 -4 67 6 7 64 -23 64 -33z m-598 -49 c6 -42 -13 -56 -52 -40 -36 15 -36 17 -8 47 31 33 55 30 60 -7z m702 -1 c-7 -11 -34 -12 -34 -1 0 14 11 21 26 15 8 -3 11 -9 8 -14z m-166 -10 c-2 -6 -8 -10 -13 -10 -5 0 -11 4 -13 10 -2 6 4 11 13 11 9 0 15 -5 13 -11z
      m-148 -48 c0 -11 -5 -23 -11 -27 -15 -9 -33 12 -26 30 9 23 37 20 37 -3z m-360 -7 c0 -17 -22 -14 -28 4 -2 7 3 12 12 12 9 0 16 -7 16 -16z m170 0 c11 -12 10 -18 -3 -32 -16 -15 -18 -15 -34 0 -13 14 -14 20 -3 32 7 9 16 16 20 16 4 0 13 -7 20 -16z m-340 -30 c0 -9 -5 -14 -12 -12 -18 6 -21 28 -4 28 9 0 16 -7 16 -16z"/>
    <path d="M150 570 c-25 -25 -24 -67 1 -153 13 -46 12 -50 -6 -63 -15 -11 -16 -17 -7 -26 7 -7 12 -31 12 -54 0 -57 8 -74 34 -74 20 1 20 2 3 14 -12 10 -17 26 -16 58 1 25 -1 50 -5 56 -4 6 -1 20 6 32 11 17 9 30 -10 84 -27 80 -27 84 0 113 28 30 17 42 -12 13z"/>
    <path d="M403 528 c-6 -7 -15 -22 -21 -34 -10 -18 -8 -20 24 -21 19 -1 37 3 40 8 3 5 -6 9 -20 9 -30 0 -32 7 -9 32 9 10 11 18 6 18 -6 0 -15 -6 -20 -12z"/>
    <path d="M538 523 c-15 -19 1 -48 28 -48 28 0 32 51 5 58 -11 3 -26 -2 -33 -10z m42 -24 c0 -5 -7 -9 -15 -9 -15 0 -20 12 -9 23 8 8 24 -1 24 -14z"/>
    <path d="M257 524 c-3 -3 -3 -12 0 -20 4 -10 -3 -14 -27 -14 -17 0 -29 -4 -26 -9 3 -5 15 -7 26 -4 15 4 20 0 20 -16 0 -17 6 -21 33 -20 24 1 26 3 9 6 -20 4 -23 10 -20 38 2 34 -3 50 -15 39z"/>
    <path d="M491 493 c-1 -17 4 -35 9 -38 12 -7 12 22 0 50 -7 17 -9 15 -9 -12z" />
    <path d="M316 484 c-8 -22 -9 -21 14 -27 23 -6 27 15 6 32 -11 9 -15 8 -20 -5z" />
    <path d="M391 456 c12 -10 59 -15 59 -6 0 5 -14 10 -32 10 -17 0 -29 -2 -27 -4z"/>
    <path d="M537 335 l-27 -35 20 -20 c11 -11 30 -20 43 -19 18 0 15 3 -13 15 l-35 14 38 -4 c22 -3 35 -1 32 5 -4 5 -17 9 -31 9 -28 0 -29 3 -8 36 25 38 12 37 -19 -1z"/>
    <path d="M819 365 c-13 -21 -20 -67 -9 -60 5 3 10 -1 10 -9 0 -9 5 -16 10 -16 11 0 11 19 1 65 -3 17 -9 26 -12 20z"/>
    <path d="M447 330 c3 -11 12 -20 19 -20 8 0 14 -4 14 -10 0 -5 -4 -10 -10 -10 -5 0 -10 -4 -10 -10 0 -5 5 -10 10 -10 18 0 23 30 10 56 -16 29 -40 33 -33 4z"/>
    <path d="M627 344 c-3 -3 -3 -12 0 -20 3 -8 0 -20 -6 -28 -15 -18 -4 -26 33 -25 23 1 25 3 9 6 -18 4 -21 9 -17 32 6 27 -6 48 -19 35z"/>
    <path d="M219 331 c7 -5 10 -14 7 -20 -4 -6 0 -11 8 -11 22 0 20 -18 -1 -22 -10 -2 -13 -6 -8 -10 6 -3 20 -2 33 3 l24 9 -24 29 c-13 17 -30 30 -38 30 -12 1 -13 -1 -1 -8z"/>
    <path d="M384 309 c-9 -16 10 -31 30 -23 13 5 14 9 5 20 -14 17 -25 18 -35 3z" />
    <path d="M715 309 c-4 -6 -13 -8 -21 -5 -8 3 -11 0 -7 -10 3 -7 15 -14 28 -14 18 0 22 4 18 20 -6 23 -9 24 -18 9z"/>
    <path d="M764 300 c0 -11 4 -20 8 -20 4 0 8 9 8 20 0 11 -4 20 -8 20 -4 0 -8 -9 -8 -20z"/>
    <path d="M308 296 c-20 -15 -25 -42 -5 -29 6 4 21 6 32 5 15 -2 17 -1 6 6 -7 6 -10 15 -7 21 10 15 -5 13 -26 -3z"/>
  </g>
</svg>
